name C:\Users\u0101727\Documents\MyRepositories\upper-imu-dc\Results\main_tracking\Case_44\FLX01_angularVelocities_bodyFrame.mot
datacolumns 4
datarows 141
range 3.51000000 4.91000000
endheader 
time	radius_imu_x	radius_imu_y	radius_imu_z	
          3.51000000	          0.03134976	          0.09399423	          0.04000545	
          3.52000000	          0.03342998	          0.09093935	          0.04161165	
          3.53000000	          0.03557719	          0.08774031	          0.04310269	
          3.54000000	          0.03777136	          0.08439550	          0.04453693	
          3.55000000	          0.03999319	          0.08090005	          0.04597555	
          3.56000000	          0.04222583	          0.07724324	          0.04748185	
          3.57000000	          0.04445649	          0.07340651	          0.04912076	
          3.58000000	          0.04667766	          0.06936259	          0.05095832	
          3.59000000	          0.04888786	          0.06507593	          0.05306128	
          3.60000000	          0.05109181	          0.06050444	          0.05549669	
          3.61000000	          0.05329997	          0.05560226	          0.05833139	
          3.62000000	          0.05552764	          0.05032338	          0.06163159	
          3.63000000	          0.05779371	          0.04462528	          0.06546240	
          3.64000000	          0.06011934	          0.03847202	          0.06988738	
          3.65000000	          0.06252662	          0.03183683	          0.07496805	
          3.66000000	          0.06503734	          0.02470336	          0.08076342	
          3.67000000	          0.06767174	          0.01706621	          0.08732947	
          3.68000000	          0.07044772	          0.00893088	          0.09471858	
          3.69000000	          0.07338028	          0.00031319	          0.10297880	
          3.70000000	          0.07648140	         -0.00876151	          0.11215296	
          3.71000000	          0.07976026	         -0.01825935	          0.12227774	
          3.72000000	          0.08322339	         -0.02813936	          0.13338281	
          3.73000000	          0.08687487	         -0.03835476	          0.14549025	
          3.74000000	          0.09071643	         -0.04885447	          0.15861418	
          3.75000000	          0.09474749	         -0.05958513	          0.17276076	
          3.76000000	          0.09896525	         -0.07049374	          0.18792823	
          3.77000000	          0.10336496	         -0.08153052	          0.20410739	
          3.78000000	          0.10794027	         -0.09265153	          0.22128207	
          3.79000000	          0.11268383	         -0.10382014	          0.23942976	
          3.80000000	          0.11758794	         -0.11500739	          0.25852213	
          3.81000000	          0.12264524	         -0.12619164	          0.27852571	
          3.82000000	          0.12784919	         -0.13735803	          0.29940248	
          3.83000000	          0.13319455	         -0.14849822	          0.32111058	
          3.84000000	          0.13867788	         -0.15961044	          0.34360485	
          3.85000000	          0.14429825	         -0.17069968	          0.36683725	
          3.86000000	          0.15005792	         -0.18177707	          0.39075714	
          3.87000000	          0.15596296	         -0.19285850	          0.41531135	
          3.88000000	          0.16202377	         -0.20396289	          0.44044429	
          3.89000000	          0.16825536	         -0.21511015	          0.46609786	
          3.90000000	          0.17467764	         -0.22631942	          0.49221131	
          3.91000000	          0.18131536	         -0.23760779	          0.51872133	
          3.92000000	          0.18819803	         -0.24898981	          0.54556222	
          3.93000000	          0.19535958	         -0.26047788	          0.57266639	
          3.94000000	          0.20283799	         -0.27208320	          0.59996460	
          3.95000000	          0.21067481	         -0.28381632	          0.62738601	
          3.96000000	          0.21891445	         -0.29568686	          0.65485800	
          3.97000000	          0.22760328	         -0.30770239	          0.68230580	
          3.98000000	          0.23678821	         -0.31986644	          0.70965222	
          3.99000000	          0.24651519	         -0.33217619	          0.73681731	
          4.00000000	          0.25682742	         -0.34462062	          0.76371806	
          4.01000000	          0.26776362	         -0.35717973	          0.79026829	
          4.02000000	          0.27935645	         -0.36982520	          0.81637883	
          4.03000000	          0.29163134	         -0.38252237	          0.84195792	
          4.04000000	          0.30460579	         -0.39523335	          0.86691196	
          4.05000000	          0.31828927	         -0.40792081	          0.89114638	
          4.06000000	          0.33268360	         -0.42055204	          0.91456664	
          4.07000000	          0.34778373	         -0.43310256	          0.93707937	
          4.08000000	          0.36357854	         -0.44555840	          0.95859367	
          4.09000000	          0.38005166	         -0.45791647	          0.97902261	
          4.10000000	          0.39718218	         -0.47018262	          0.99828498	
          4.11000000	          0.41494557	         -0.48236780	          1.01630711	
          4.12000000	          0.43331483	         -0.49448277	          1.03302466	
          4.13000000	          0.45226192	         -0.50653255	          1.04838412	
          4.14000000	          0.47175926	         -0.51851160	          1.06234395	
          4.15000000	          0.49178101	         -0.53040066	          1.07487530	
          4.16000000	          0.51230396	         -0.54216493	          1.08596225	
          4.17000000	          0.53330781	         -0.55375323	          1.09560148	
          4.18000000	          0.55477512	         -0.56509753	          1.10380159	
          4.19000000	          0.57669062	         -0.57611311	          1.11058202	
          4.20000000	          0.59904018	         -0.58670030	          1.11597201	
          4.21000000	          0.62180931	         -0.59674815	          1.12000971	
          4.22000000	          0.64498139	         -0.60614025	          1.12274116	
          4.23000000	          0.66853590	         -0.61476184	          1.12421910	
          4.24000000	          0.69244704	         -0.62250797	          1.12450155	
          4.25000000	          0.71668333	         -0.62929245	          1.12365001	
          4.26000000	          0.74120844	         -0.63505764	          1.12172761	
          4.27000000	          0.76598327	         -0.63978355	          1.11879701	
          4.28000000	          0.79096863	         -0.64349359	          1.11491824	
          4.29000000	          0.81612806	         -0.64625470	          1.11014677	
          4.30000000	          0.84143019	         -0.64817252	          1.10453227	
          4.31000000	          0.86685052	         -0.64938367	          1.09811816	
          4.32000000	          0.89237248	         -0.65004650	          1.09094178	
          4.33000000	          0.91798774	         -0.65032922	          1.08303445	
          4.34000000	          0.94369534	         -0.65039436	          1.07442139	
          4.35000000	          0.96949995	         -0.65038127	          1.06512148	
          4.36000000	          0.99540928	         -0.65039092	          1.05514728	
          4.37000000	          1.02143116	         -0.65047753	          1.04450600	
          4.38000000	          1.04757079	         -0.65064883	          1.03320147	
          4.39000000	          1.07382866	         -0.65087436	          1.02123676	
          4.40000000	          1.10019929	         -0.65109869	          1.00861682	
          4.41000000	          1.12667093	         -0.65125566	          0.99535043	
          4.42000000	          1.15322620	         -0.65127821	          0.98145103	
          4.43000000	          1.17984334	         -0.65110111	          0.96693657	
          4.44000000	          1.20649782	         -0.65065757	          0.95182855	
          4.45000000	          1.23316411	         -0.64987530	          0.93615105	
          4.46000000	          1.25981694	         -0.64867726	          0.91993005	
          4.47000000	          1.28643186	         -0.64698925	          0.90319315	
          4.48000000	          1.31298481	         -0.64475353	          0.88596937	
          4.49000000	          1.33945118	         -0.64194393	          0.86828887	
          4.50000000	          1.36580457	         -0.63857644	          0.85018233	
          4.51000000	          1.39201555	         -0.63471046	          0.83167983	
          4.52000000	          1.41805038	         -0.63044010	          0.81280936	
          4.53000000	          1.44386978	         -0.62587973	          0.79359535	
          4.54000000	          1.46942729	         -0.62114829	          0.77405791	
          4.55000000	          1.49466750	         -0.61635564	          0.75421296	
          4.56000000	          1.51952433	         -0.61159334	          0.73407379	
          4.57000000	          1.54391974	         -0.60693004	          0.71365343	
          4.58000000	          1.56776348	         -0.60240920	          0.69296740	
          4.59000000	          1.59095365	         -0.59804641	          0.67203622	
          4.60000000	          1.61337789	         -0.59382761	          0.65088693	
          4.61000000	          1.63491561	         -0.58971036	          0.62955416	
          4.62000000	          1.65544107	         -0.58562998	          0.60808097	
          4.63000000	          1.67482730	         -0.58150975	          0.58652004	
          4.64000000	          1.69295045	         -0.57727109	          0.56493493	
          4.65000000	          1.70969403	         -0.57284026	          0.54340103	
          4.66000000	          1.72495250	         -0.56815112	          0.52200554	
          4.67000000	          1.73863418	         -0.56314635	          0.50084656	
          4.68000000	          1.75066338	         -0.55777967	          0.48003143	
          4.69000000	          1.76098145	         -0.55201909	          0.45967471	
          4.70000000	          1.76954683	         -0.54584942	          0.43989605	
          4.71000000	          1.77633427	         -0.53927267	          0.42081790	
          4.72000000	          1.78133371	         -0.53230624	          0.40256315	
          4.73000000	          1.78454909	         -0.52498094	          0.38525278	
          4.74000000	          1.78599724	         -0.51734040	          0.36900378	
          4.75000000	          1.78570640	         -0.50944152	          0.35392758	
          4.76000000	          1.78371367	         -0.50135405	          0.34012917	
          4.77000000	          1.78006126	         -0.49315784	          0.32770657	
          4.78000000	          1.77479231	         -0.48493796	          0.31675085	
          4.79000000	          1.76794728	         -0.47677872	          0.30734605	
          4.80000000	          1.75956151	         -0.46875774	          0.29956900	
          4.81000000	          1.74966448	         -0.46094089	          0.29348862	
          4.82000000	          1.73828205	         -0.45337834	          0.28916512	
          4.83000000	          1.72543949	         -0.44610160	          0.28664883	
          4.84000000	          1.71116292	         -0.43912160	          0.28597840	
          4.85000000	          1.69548130	         -0.43242735	          0.28717938	
          4.86000000	          1.67842962	         -0.42598369	          0.29026376	
          4.87000000	          1.66004738	         -0.41973101	          0.29522895	
          4.88000000	          1.64037356	         -0.41358918	          0.30205638	
          4.89000000	          1.61944908	         -0.40745795	          0.31071258	
          4.90000000	          1.59732227	         -0.40121726	          0.32115018	
          4.91000000	          1.57403551	         -0.39474442	          0.33330168	
